# xmcd
#
# Track frame offsets:
#	150
#	11210
#	23853
#	38205
#	49536
#	66866
#	81108
#	98818
#	113470
#	131190
#	145545
#	162116
#
# Disc length: 2311 seconds
#
# Revision: 0
# Processed by: cddbd v1.5.2PL0 Copyright (c) Steve Scherf et al.
# Submitted via: audiograbber 1.83.01
#
DISCID=9409050c
DTITLE=Brooke and Darin Aldridge - So Much In Between
DYEAR=2011
DGENRE=Bluegrass
TTITLE0=Lonely Ends Where Love Begins
TTITLE1=That's Just Me Lovin' You
TTITLE2=Love Makes The Ride Worth While
TTITLE3=We're In This Love Together
TTITLE4=Every Scar
TTITLE5=Things In Life
TTITLE6=Wildflower
TTITLE7=Jesus Walk Beside Me
TTITLE8=Our Little World
TTITLE9=Lord Lift Me Up
TTITLE10=He's Already There
TTITLE11=A Cowboy's Sweetheart
EXTD=
EXTT0=
EXTT1=
EXTT2=
EXTT3=
EXTT4=
EXTT5=
EXTT6=
EXTT7=
EXTT8=
EXTT9=
EXTT10=
EXTT11=
PLAYORDER=
